<?xml version="1.0" standalone="no"?>
<!DOCTYPE svg PUBLIC "-//W3C//DTD SVG 20010904//EN"
 "http://www.w3.org/TR/2001/REC-SVG-20010904/DTD/svg10.dtd">
<svg version="1.0" xmlns="http://www.w3.org/2000/svg"
 width="105.000000pt" height="108.000000pt" viewBox="0 0 105.000000 108.000000"
 preserveAspectRatio="xMidYMid meet">
<metadata>
Created by potrace 1.16, written by Peter Selinger 2001-2019
</metadata>
<g transform="translate(0.000000,108.000000) scale(0.100000,-0.100000)"
fill="#000000" stroke="none">
<path d="M460 1039 c-32 -13 -40 -26 -40 -67 0 -38 24 -102 39 -102 18 0 12
-36 -10 -64 -14 -18 -28 -26 -40 -23 -12 3 -16 0 -12 -9 3 -8 11 -14 18 -14 6
0 17 -10 24 -22 6 -13 9 -15 7 -5 -3 9 -1 17 4 17 6 0 10 11 10 25 0 33 20 75
37 75 7 0 13 5 13 10 0 6 -7 10 -16 10 -8 0 -12 5 -9 10 3 6 17 10 30 10 18 0
23 -4 18 -15 -4 -13 0 -15 21 -11 18 3 26 0 26 -9 0 -8 9 -30 21 -49 23 -40
22 -41 -17 -26 -15 6 -36 8 -46 4 -17 -5 -18 -8 -7 -19 18 -16 99 -36 99 -24
0 5 7 9 15 9 8 0 15 5 15 11 0 14 -25 39 -39 39 -6 0 -11 6 -11 14 0 8 -5 16
-12 18 -7 3 -9 12 -5 22 6 14 13 16 39 10 18 -4 40 -8 50 -9 9 0 32 -13 51
-28 42 -32 52 -34 35 -7 -7 10 -8 23 -4 27 5 4 11 2 13 -4 7 -20 23 -15 23 7
0 14 -5 18 -16 13 -12 -4 -15 -2 -12 8 3 8 15 14 27 13 13 0 21 5 21 17 0 16
10 23 35 28 6 2 18 10 28 18 16 15 16 17 1 35 -19 20 -44 24 -44 7 0 -22 -47
-68 -58 -57 -7 7 -12 3 -17 -11 -8 -26 -17 -26 -40 -1 -10 11 -24 20 -32 20
-8 0 -13 12 -13 36 0 30 -4 37 -33 49 -44 18 -156 27 -187 14z"/>
<path d="M188 989 c-26 -15 -23 -25 21 -70 31 -33 40 -50 43 -84 2 -33 0 -41
-9 -33 -7 5 -17 7 -23 3 -5 -3 -10 -1 -10 5 0 7 -8 9 -22 4 -33 -10 -34 -12
-9 -38 l23 -25 -30 -29 c-17 -17 -36 -50 -42 -73 -7 -24 -18 -56 -26 -70 -9
-18 -13 -59 -13 -123 0 -59 -4 -103 -11 -111 -15 -18 15 -87 57 -132 26 -28
38 -33 75 -33 35 0 50 -6 69 -26 56 -61 158 -104 244 -104 83 0 160 30 239 94
26 21 59 40 71 42 31 3 45 12 45 29 0 7 16 23 35 35 38 23 80 93 69 112 -4 6
-6 28 -6 49 1 21 -3 41 -8 44 -6 3 -10 24 -10 45 0 21 -5 42 -10 45 -6 4 -8
10 -5 14 2 5 -4 31 -14 59 -10 28 -17 53 -14 56 3 2 2 18 -2 35 -8 37 -25 33
-17 -4 3 -20 0 -25 -14 -25 -32 1 -99 36 -121 64 -12 14 -24 26 -27 26 -21 0
-186 -134 -175 -143 2 -2 24 -9 49 -17 36 -10 41 -14 26 -20 -11 -3 -40 -4
-65 0 -49 7 -121 5 -183 -3 -33 -5 -38 -3 -38 15 0 13 5 18 14 15 8 -3 17 -1
20 6 3 9 8 8 15 -3 9 -13 11 -12 11 5 1 18 2 18 13 4 24 -31 35 -11 19 37 -11
33 -19 43 -31 40 -64 -19 -67 -19 -100 22 -17 22 -31 43 -31 47 0 4 20 25 45
47 36 32 42 42 32 53 -8 8 -14 9 -18 2 -4 -5 -15 -7 -25 -2 -18 7 -18 8 1 15
19 8 19 9 -2 9 -13 1 -25 0 -27 -1 -9 -6 -56 46 -53 56 5 13 -11 46 -21 46 -4
0 -15 -5 -24 -11z m80 -460 c7 -29 17 -56 20 -59 12 -8 13 -88 2 -95 -7 -4 -7
-12 0 -25 15 -29 -19 -65 -53 -56 -50 12 -49 113 1 141 27 14 27 14 -21 15
-44 0 -48 -2 -42 -20 5 -14 2 -20 -9 -20 -18 0 -23 54 -7 65 6 3 24 30 41 61
18 30 37 53 43 51 6 -2 17 -28 25 -58z m157 -3 c-9 -14 -15 -33 -12 -43 4 -20
6 -18 26 40 8 21 17 27 42 27 30 0 31 0 24 -40 -8 -50 11 -55 21 -5 9 49 35
48 27 -1 -5 -32 -4 -36 13 -32 11 2 23 16 29 36 13 46 35 42 28 -4 -5 -29 -3
-36 8 -32 8 3 16 20 19 38 3 18 11 35 19 38 10 3 13 -2 9 -22 -7 -36 29 -37
38 -1 4 14 11 24 18 22 12 -5 12 -7 2 -50 -5 -21 -3 -28 6 -25 7 3 14 14 16
27 4 28 39 49 77 47 31 -2 32 -3 21 -48 -5 -21 -3 -28 9 -28 19 0 20 -26 1
-33 -7 -3 -18 -1 -23 4 -5 5 -18 6 -28 3 -17 -7 -17 -8 3 -15 23 -9 31 -52 12
-64 -8 -5 -7 -11 1 -21 15 -19 5 -42 -26 -56 -21 -9 -28 -8 -45 7 -11 10 -20
30 -21 44 0 15 -3 20 -6 11 -17 -46 -68 -65 -93 -35 -10 12 -15 12 -37 -2 -20
-13 -29 -14 -44 -5 -26 17 -59 15 -65 -3 -4 -9 -15 -20 -26 -26 -16 -9 -24 -7
-37 6 -15 15 -14 18 6 35 18 14 20 19 8 24 -19 7 -21 80 -3 74 7 -3 13 -15 13
-29 0 -30 29 -33 33 -2 2 12 10 27 19 35 15 12 16 8 10 -34 -4 -29 -3 -48 3
-48 6 0 10 11 10 23 0 30 32 60 60 55 28 -4 27 -22 -2 -28 -16 -4 -23 -13 -23
-30 0 -38 30 -37 56 2 30 46 66 62 95 43 20 -13 24 -12 49 9 21 18 24 24 12
29 -8 3 -25 3 -37 0 -16 -4 -23 0 -27 16 -6 24 -5 23 -27 15 -9 -3 -16 -12
-16 -19 0 -9 -24 -13 -95 -12 -83 0 -95 2 -100 19 -4 10 -3 28 0 39 5 15 3 20
-6 17 -7 -2 -18 -20 -24 -39 -11 -30 -17 -35 -61 -42 -43 -7 -51 -6 -66 13
-24 29 -23 49 4 77 23 24 57 30 74 13 8 -8 15 -6 24 5 20 24 24 10 5 -19z
m-31 -241 c32 -13 36 -19 36 -51 0 -21 -4 -33 -10 -29 -6 3 -7 -1 -4 -9 12
-32 156 -45 173 -17 5 8 17 11 30 6 11 -3 29 -1 38 5 16 10 15 11 -5 6 -34 -7
-52 3 -51 28 1 16 2 17 6 4 5 -21 4 -21 37 -8 27 10 36 43 15 56 -8 4 -9 -1
-5 -17 3 -13 3 -18 0 -11 -3 6 -15 12 -27 12 -21 1 -21 1 3 15 33 19 71 20 64
1 -3 -7 2 -16 10 -19 10 -4 13 -1 10 7 -4 10 2 12 20 9 14 -3 26 -10 26 -15 0
-5 6 -8 13 -7 36 4 34 -5 -7 -40 -135 -117 -288 -129 -439 -34 -55 34 -101 73
-88 73 6 0 11 7 11 15 0 8 12 17 28 21 15 3 32 7 37 9 22 7 44 4 79 -10z"/>
</g>
</svg>
